<svg fill="#c8ff00" width="155px" height="155px" viewBox="-4.32 -4.32 32.64 32.64" xmlns="http://www.w3.org/2000/svg" stroke="#c8ff00" stroke-width="0.576"><g id="SVGRepo_bgCarrier" stroke-width="0"></g><g id="SVGRepo_tracerCarrier" stroke-linecap="round" stroke-linejoin="round" stroke="#030303" stroke-width="2.256"><path d="M22,12H16.333V10a1,1,0,0,0-1-1H8.667a1,1,0,0,0-1,1v5H2a1,1,0,0,0-1,1v6a1,1,0,0,0,1,1H22a1,1,0,0,0,1-1V13A1,1,0,0,0,22,12ZM7.667,21H3V17H7.667Zm6.666-8v8H9.667V11h4.666ZM21,21H16.333V14H21ZM15,3.292,13.333,4.667,13.854,7,12,5.667,10.146,7l.521-2.333L9,3.292,11,3l1-2,1,2Z"></path></g><g id="SVGRepo_iconCarrier"><path d="M22,12H16.333V10a1,1,0,0,0-1-1H8.667a1,1,0,0,0-1,1v5H2a1,1,0,0,0-1,1v6a1,1,0,0,0,1,1H22a1,1,0,0,0,1-1V13A1,1,0,0,0,22,12ZM7.667,21H3V17H7.667Zm6.666-8v8H9.667V11h4.666ZM21,21H16.333V14H21ZM15,3.292,13.333,4.667,13.854,7,12,5.667,10.146,7l.521-2.333L9,3.292,11,3l1-2,1,2Z"></path></g></svg>